<svg width="61" height="70" viewBox="0 0 61 70" fill="none" xmlns="http://www.w3.org/2000/svg">
<path d="M60.1532 51.3593C58.5082 55.0015 57.7214 56.6301 55.6087 59.8486C52.657 64.3436 48.4894 69.9527 43.337 69.9912C38.754 70.0297 37.5711 67.001 31.3513 67.0505C25.1315 67.0807 23.8358 70.0462 19.2473 69.9994C14.0949 69.9527 10.1501 64.8993 7.19561 60.4126C-1.06535 47.8272 -1.93739 33.0768 3.16828 25.2285C6.78022 19.6634 12.4966 16.3954 17.8636 16.3954C23.3296 16.3954 26.7655 19.3994 31.2853 19.3994C35.6702 19.3994 38.3413 16.3871 44.6629 16.3871C49.444 16.3871 54.5001 18.9922 58.112 23.4872C46.2942 29.9628 48.2143 46.8424 60.1532 51.3593V51.3593ZM39.8653 11.364C42.1651 8.41226 43.9091 4.24739 43.2764 0C39.5242 0.255834 35.1365 2.65187 32.5727 5.75489C30.2509 8.58006 28.3253 12.7779 29.0763 16.8383C33.1696 16.9703 37.406 14.5303 39.8653 11.364V11.364Z" fill="#D2D6EF"/>
</svg>
