<svg width="58" height="70" viewBox="0 0 58 70" fill="none" xmlns="http://www.w3.org/2000/svg">
<path d="M30.3014 0C29.8464 0 29.3806 0.0240592 28.8994 0.0590545C16.5745 1.03673 19.8444 14.0812 19.6606 18.4316C19.4332 21.6096 18.7857 24.127 16.5985 27.2394C14.0111 30.3037 10.3891 35.2599 8.66993 40.4173C7.86285 42.8429 7.47353 45.3407 7.83879 47.6876C7.70123 47.7895 7.58836 47.9211 7.50852 48.0726C6.75613 48.8599 6.1962 49.8289 5.5816 50.5222C5.00199 51.1018 4.17085 51.2987 3.2566 51.6858C2.34672 52.0817 1.33186 52.471 0.739127 53.6784C0.476663 54.2273 0.33887 54.8179 0.351993 55.4347C0.351993 56.0034 0.432919 56.5961 0.511659 56.9942C0.684448 58.1556 0.852862 59.1136 0.625393 59.82C-0.102946 61.7994 -0.181685 63.1555 0.319185 64.1485C0.828803 65.1284 1.87866 65.5155 3.051 65.9048C5.42193 66.4844 8.62181 66.3007 11.1524 67.6458C13.8492 69.0128 16.5964 69.6056 18.7836 69.026C19.538 68.8568 20.2453 68.5217 20.854 68.045C21.4628 67.5683 21.9577 66.962 22.3028 66.2701C24.011 66.2592 25.8898 65.4827 28.8884 65.2902C30.9269 65.1174 33.4794 66.0754 36.4059 65.8698C36.4846 66.2701 36.5874 66.4494 36.7471 66.8497V66.8606C37.8844 69.1266 39.9929 70.1524 42.2501 69.9818C44.492 69.8002 46.8848 68.4223 48.8204 66.1673C50.6664 63.9451 53.7307 63.009 55.7582 61.7929C56.7731 61.2089 57.5933 60.4259 57.6502 59.2973C57.718 58.1359 57.0706 56.9285 55.5767 55.2881V55.0016L55.5658 54.9907C55.0649 54.4111 54.8374 53.4312 54.575 52.2939C54.3234 51.1193 54.05 50.0039 53.1402 49.2405C52.9564 49.0809 52.7749 49.0459 52.5824 48.8534C52.4208 48.7395 52.2307 48.6729 52.0334 48.6609C53.2867 44.9339 52.7968 41.2332 51.5194 37.8933C49.9709 33.7814 47.2478 30.1944 45.1853 27.7337C42.8603 24.8051 40.5834 22.0273 40.6293 17.9154C40.7081 11.6359 41.3227 0.0306209 30.297 0.00656161L30.3014 0ZM31.839 9.93209H31.8849C32.4995 9.93209 33.0332 10.1158 33.5822 10.503C34.1399 10.8988 34.5511 11.4719 34.8573 12.0624C35.1657 12.8148 35.3276 13.3944 35.3473 14.1687C35.3473 14.114 35.3582 14.055 35.3582 14.0003V14.3065C35.3582 14.2824 35.3473 14.2628 35.3473 14.2387L35.3363 14.1687C35.3363 14.8774 35.1898 15.5838 34.9054 16.2312C34.7703 16.5998 34.556 16.9343 34.2777 17.2111C34.199 17.1674 34.118 17.1214 34.0262 17.0864C33.72 16.9486 33.4466 16.9049 33.195 16.7015C32.9881 16.6186 32.7744 16.5535 32.5564 16.5068C32.6942 16.3384 32.9785 16.1197 33.0922 15.9272C33.241 15.562 33.3197 15.1639 33.3438 14.7549V14.6958C33.35 14.301 33.2878 13.9081 33.1601 13.5344C33.0354 13.1473 32.8779 12.9504 32.6373 12.5655C32.3858 12.3708 32.1474 12.1784 31.8499 12.1784H31.8062C31.5328 12.1784 31.2922 12.2571 31.0428 12.5655C30.7692 12.8353 30.5657 13.1679 30.4501 13.5344C30.2912 13.9019 30.2022 14.2957 30.1876 14.6958V14.7549C30.1876 15.0152 30.2117 15.2776 30.2423 15.5401C29.6736 15.3476 28.9672 15.1398 28.4663 14.9474C28.4391 14.7553 28.4237 14.5617 28.4204 14.3677V14.3087C28.3982 13.5384 28.5469 12.7728 28.8556 12.0668C29.094 11.4281 29.5271 10.8792 30.1089 10.5161C30.6076 10.1421 31.2113 9.93647 31.839 9.93647V9.93209ZM23.2039 10.1049H23.3067C23.7179 10.1049 24.0941 10.2427 24.4703 10.492C24.9012 10.8682 25.2467 11.3341 25.4742 11.8459C25.7367 12.4299 25.8832 13.0204 25.9292 13.7947V13.8056C25.9401 14.1928 25.9401 14.4005 25.9182 14.5821V14.8205L25.6798 14.8883C25.2358 15.048 24.8837 15.2754 24.5272 15.4723C24.5622 15.2098 24.5622 14.9474 24.5381 14.6958V14.6499C24.5053 14.2649 24.4244 14.0703 24.2997 13.681C24.2063 13.3816 24.0376 13.1112 23.8098 12.8958C23.6665 12.768 23.4787 12.702 23.287 12.712H23.217C23.0136 12.723 22.8408 12.8258 22.6833 13.0992C22.4905 13.3209 22.368 13.595 22.3312 13.8866C22.2503 14.1928 22.2262 14.523 22.2612 14.8555V14.8883C22.2962 15.2886 22.364 15.4832 22.4996 15.8682C22.5876 16.1649 22.7529 16.4328 22.9786 16.6446C23.0136 16.6796 23.0377 16.7037 23.0814 16.7124C22.878 16.8852 22.7402 16.9202 22.5718 17.1127C22.4559 17.1936 22.3334 17.2964 22.1847 17.3205C21.8813 16.9556 21.614 16.5623 21.3863 16.1459C21.1073 15.5328 20.9526 14.8704 20.9314 14.1971C20.8872 13.5391 20.9643 12.8785 21.1589 12.2483C21.3317 11.6797 21.6051 11.1438 21.99 10.6889C22.3662 10.3017 22.7424 10.1093 23.2083 10.1093L23.2039 10.1049ZM27.2021 15.083C28.171 15.083 29.3346 15.2645 30.7454 16.2444C31.6006 16.8283 32.2742 17.0318 33.8228 17.6004C34.5752 18.0007 35.0061 18.3878 35.2226 18.775V18.3878C35.3265 18.5991 35.3843 18.83 35.3922 19.0653C35.4001 19.3006 35.3579 19.5349 35.2685 19.7526C34.9033 20.6647 33.7637 21.6336 32.1605 22.2132V22.2242C31.384 22.6113 30.7016 23.1931 29.9033 23.5802C29.0962 23.9674 28.182 24.4354 26.9528 24.3567C26.5076 24.3762 26.0629 24.3102 25.6426 24.162C25.3186 23.99 25.0066 23.7964 24.7087 23.5824C24.14 23.1953 23.6501 22.6135 22.9217 22.2264V22.2154H22.9108C21.7363 21.498 21.1107 20.7216 20.9051 20.142C20.7127 19.3568 20.8942 18.7771 21.476 18.39C22.1234 18.0029 22.5784 17.6026 22.8758 17.4101C23.182 17.1936 23.2979 17.1127 23.3898 17.0339H23.4007V17.023C23.8907 16.4303 24.6628 15.656 25.8504 15.2667C26.2463 15.1639 26.7056 15.0851 27.2043 15.0851L27.2021 15.083ZM35.3582 21.323C36.408 25.4591 38.8577 31.4629 40.4303 34.3675C41.2615 35.927 42.9237 39.2078 43.6411 43.1863C44.0961 43.1754 44.5969 43.241 45.135 43.3788C47.0247 38.5035 43.5515 33.263 41.9679 31.8041C41.3183 31.2245 41.2855 30.8352 41.6027 30.8352C43.324 32.3837 45.5768 35.4174 46.397 38.8666C46.7732 40.4261 46.8673 42.0927 46.467 43.7419C46.6595 43.8206 46.8541 43.9234 47.0597 43.9344C50.0671 45.4982 51.1826 46.6706 50.6467 48.4225V48.2978C50.4783 48.2891 50.2946 48.2978 50.124 48.2978H50.0781C50.5243 46.933 49.5444 45.8832 46.9701 44.7218C44.3039 43.5604 42.1735 43.7419 41.8083 46.0778C41.7825 46.2098 41.7678 46.3437 41.7645 46.4781C41.5567 46.5459 41.3533 46.6246 41.1499 46.6596C39.8966 47.447 39.223 48.6194 38.838 50.1242C38.4618 51.6836 38.3481 53.4946 38.2453 55.5812C38.1753 56.5611 37.7444 58.0287 37.3092 59.5204C32.9348 62.6525 26.8631 64.0085 21.7166 60.5002C21.3841 59.9316 20.997 59.4066 20.5421 58.9408C20.3237 58.5788 20.0515 58.2521 19.735 57.9718C20.2687 57.9718 20.7258 57.8822 21.0911 57.7772C21.5082 57.5762 21.8362 57.2279 22.0119 56.7995C22.3203 56.023 22.0119 54.7698 20.997 53.4028C19.9975 52.0489 18.2871 50.5091 15.7915 48.9737C13.9477 47.8123 12.9109 46.4343 12.4319 44.9055C11.9529 43.346 12.0207 41.7384 12.386 40.1111C13.1034 36.99 14.9385 33.9498 16.113 32.0447C16.4192 31.8632 16.2158 32.445 14.9166 34.8947C13.7639 37.0819 11.5898 42.1737 14.5601 46.1259C14.6742 43.2394 15.3154 40.3982 16.452 37.7424C18.0902 34.0176 21.5329 27.526 21.8063 22.3773C21.9441 22.491 22.434 22.7775 22.6483 22.97C23.2761 23.3571 23.7529 23.9389 24.3697 24.3261C24.9843 24.9057 25.7586 25.3059 26.9221 25.3059C27.0359 25.3169 27.1387 25.3169 27.2393 25.3169C28.4357 25.3169 29.3718 24.9298 30.1439 24.5404C30.986 24.1402 31.6728 23.5606 32.307 23.3681H32.318C33.674 22.981 34.7567 22.1936 35.3604 21.3274L35.3582 21.323ZM41.7383 47.447C41.852 49.199 42.7422 51.08 44.3126 51.4649C46.0208 51.852 48.4923 50.496 49.5291 49.234L50.1437 49.2099C51.0645 49.1858 51.83 49.234 52.613 49.9864L52.624 49.9973C53.2276 50.5769 53.5142 51.5458 53.7635 52.5498C54.015 53.7221 54.2075 54.8266 54.9599 55.6578C56.3707 57.1954 56.8387 58.2999 56.8168 58.9845C56.7709 59.7457 56.2679 60.1328 55.358 60.7146C53.5229 61.8891 50.2662 62.7881 48.1927 65.2968C46.3904 67.449 44.1945 68.6213 42.2544 68.7701C40.3188 68.9297 38.6434 68.1905 37.6635 66.152L37.6526 66.141C37.038 64.9775 37.3004 63.1555 37.8122 61.2177C38.3262 59.2689 39.0655 57.2894 39.1683 55.6818C39.2711 53.5974 39.3848 51.7864 39.726 50.3822C40.0782 49.0262 40.6272 48.0572 41.607 47.5236L41.7317 47.4536L41.7383 47.447ZM10.1944 47.5936H10.2294C10.3891 47.5936 10.5378 47.6045 10.6843 47.6395C11.7779 47.7992 12.7469 48.6084 13.6699 49.8267L16.323 54.6801L16.3339 54.691C17.0404 56.2396 18.532 57.7881 19.7962 59.4657C21.0626 61.2067 22.0425 62.7662 21.9288 64.0435V64.0676C21.756 66.2307 20.5268 67.4031 18.648 67.8383C16.767 68.2255 14.2145 67.8383 11.6642 66.4822C8.84053 64.9228 5.4788 65.1152 3.32659 64.7259C2.25705 64.5335 1.55058 64.1332 1.21813 63.5536C0.900981 62.974 0.887858 61.7973 1.58339 59.9644V59.9556C1.92459 58.9758 1.67744 57.7575 1.50465 56.6858C1.34498 55.5222 1.26624 54.621 1.62932 53.9496C2.09519 52.9697 2.79073 52.7882 3.64373 52.3901C4.49893 52.003 5.51379 51.8105 6.30994 51.0231H6.32087V51.0122C7.06233 50.2401 7.62226 49.2711 8.26967 48.5734C8.81866 47.9807 9.37421 47.5936 10.1944 47.5936V47.5936ZM31.0778 21.1306C29.8114 21.7102 28.3198 22.6901 26.7362 22.6901C25.1527 22.6901 23.9104 21.918 23.0114 21.334C22.5565 20.9381 22.1912 20.5488 21.9178 20.3541C21.4388 19.9692 21.4957 19.3764 21.7013 19.3764C22.0184 19.4202 22.0775 19.7723 22.2809 19.9692C22.5674 20.1616 22.9086 20.5488 23.3286 20.9381C24.1838 21.5177 25.3233 22.3029 26.734 22.3029C28.1492 22.3029 29.8114 21.5177 30.8132 20.9381C31.3819 20.551 32.1102 19.9692 32.7029 19.582C33.1579 19.1818 33.1382 18.7946 33.51 18.7946C33.8862 18.8406 33.615 19.1818 33.0901 19.7636C32.5542 20.1638 31.734 20.7434 31.0756 21.1306H31.0778ZM27.9217 16.5068V16.4521C27.9108 16.3931 27.9545 16.3275 28.0114 16.3034C28.2148 16.1787 28.5341 16.2225 28.7638 16.3144C28.9453 16.3144 29.2296 16.5068 29.2078 16.7102C29.1837 16.848 28.9562 16.9049 28.8075 16.9049C28.65 16.9049 28.5341 16.7802 28.3985 16.7015C28.2498 16.6556 27.9633 16.6774 27.9195 16.5068H27.9217ZM26.3141 16.5068C26.255 16.6796 25.9816 16.6556 25.8351 16.7015C25.6973 16.7802 25.5836 16.9049 25.4239 16.9049C25.2752 16.9049 25.0368 16.8458 25.0237 16.7015C25.004 16.5068 25.2752 16.3144 25.4589 16.3144C25.6973 16.2203 25.9926 16.1766 26.2201 16.3034C26.266 16.3275 26.325 16.3931 26.301 16.4521V16.5068H26.3141Z" fill="#D2D6EF"/>
</svg>
